<?xml version="1.0" encoding="UTF-8" standalone="no"?>
<!-- Created with Inkscape (http://www.inkscape.org/) -->

<svg
   width="95.505249mm"
   height="87.829369mm"
   viewBox="0 0 95.505249 87.829371"
   version="1.1"
   id="svg1"
   sodipodi:docname="favicon.svg"
   inkscape:version="1.4.3 (0d15f75, 2025-12-25)"
   xmlns:inkscape="http://www.inkscape.org/namespaces/inkscape"
   xmlns:sodipodi="http://sodipodi.sourceforge.net/DTD/sodipodi-0.dtd"
   xmlns="http://www.w3.org/2000/svg"
   xmlns:svg="http://www.w3.org/2000/svg"
   xmlns:rdf="http://www.w3.org/1999/02/22-rdf-syntax-ns#"
   xmlns:cc="http://creativecommons.org/ns#"
   xmlns:dc="http://purl.org/dc/elements/1.1/">
  <sodipodi:namedview
     id="namedview1"
     pagecolor="#ffffff"
     bordercolor="#000000"
     borderopacity="0.25"
     inkscape:showpageshadow="2"
     inkscape:pageopacity="0.0"
     inkscape:pagecheckerboard="0"
     inkscape:deskcolor="#d1d1d1"
     inkscape:document-units="mm"
     inkscape:zoom="0.88613738"
     inkscape:cx="14.106165"
     inkscape:cy="163.06727"
     inkscape:window-width="1800"
     inkscape:window-height="1102"
     inkscape:window-x="0"
     inkscape:window-y="39"
     inkscape:window-maximized="0"
     inkscape:current-layer="svg1" />
  <title
     id="title7">VeriPB Logo</title>
  <defs
     id="defs1" />
  <g
     id="layer1"
     transform="translate(-15.786629,-27.562907)"
     style="display:inline">
    <path
       style="mix-blend-mode:normal;fill:#8764da;fill-opacity:1;stroke:none;stroke-width:0.264583"
       id="path21"
       d="m 15.786629,73.778385 c 0.136753,0.126646 0.269405,0.257868 0.410259,0.379936 0.496158,0.429985 1.328244,1.071505 1.773842,1.432518 1.514734,1.227198 2.473414,2.006992 3.950498,3.38151 0.756947,0.704387 1.479998,1.444344 2.219997,2.166514 2.56434,2.618142 4.991536,5.382914 7.051559,8.42005 1.020277,1.504217 1.197468,1.891776 2.058768,3.427103 0.884076,1.732647 1.545449,3.573949 1.932971,5.481021 0.203274,1.00036 0.216374,1.322604 0.324827,2.316523 0.110516,1.40217 0.142377,2.80907 0.12519,4.21504 0.01365,0.79747 0.03883,1.59428 0.03633,2.39214 -0.174869,4.81975 -1.634842,0.929 10.516359,6.11842 0.186306,0.0796 -0.04382,-0.4028 -0.06573,-0.6042 -0.222031,-2.50765 -0.236853,-5.03411 -0.02363,-7.54349 0.0737,-0.86739 0.188333,-1.73082 0.282498,-2.59623 1.114126,-7.593933 3.564191,-14.933736 6.653612,-21.941493 0.879983,-1.996072 1.861111,-3.946004 2.791666,-5.919007 4.184221,-8.278288 9.342191,-16.058512 15.816487,-22.73123 4.147442,-4.274552 5.156769,-4.797517 9.822402,-8.417657 1.704123,-1.052838 3.363325,-2.182117 5.112369,-3.158511 4.232741,-2.36291 8.7977,-4.225824 13.488597,-5.453808 2.83963,-0.74336 3.78077,-0.784955 6.57458,-1.150691 3.24811,-0.14641 1.6975,-0.151451 4.6518,-0.02382 0,0 -8.83013,-6.406116 -8.83013,-6.406116 v 0 c -2.76952,0.167504 -1.31949,0.02569 -4.346534,0.460183 -2.689596,0.602501 -3.416517,0.690306 -6.140238,1.644058 -6.374345,2.232073 -12.299945,5.563547 -17.747951,9.534103 -1.688743,1.345203 -3.45852,2.594534 -5.066229,4.035603 -1.626751,1.458137 -3.137193,3.04407 -4.620947,4.647488 -4.792679,5.1792 -9.036916,10.885667 -12.730004,16.895971 -1.188842,1.934779 -2.243095,3.949099 -3.364643,5.923648 -1.017468,1.938343 -2.067472,3.859948 -3.052402,5.815025 -2.959902,5.875388 -5.693503,11.939805 -7.583842,18.253972 -0.29967,1.000969 -0.536917,2.019573 -0.805373,3.02936 -0.174244,0.846196 -0.371798,1.687925 -0.52273,2.538592 -0.425471,2.398 -0.608131,4.82985 -0.779147,7.25571 -0.02167,0.17972 -0.220774,0.44691 -0.06502,0.53918 12.67637,7.50956 10.651916,9.45001 10.522077,4.59974 -0.0013,-0.81162 0.03438,-1.6245 -0.0086,-2.43503 -0.138308,-1.49036 -0.318415,-2.97661 -0.441941,-4.46837 -0.113012,-0.91698 -0.17625,-1.5563 -0.355399,-2.47193 -0.403567,-2.06265 -1.127414,-4.048666 -2.094336,-5.913262 -0.338458,-0.5828 -0.659527,-1.176054 -1.015373,-1.748406 -2.399387,-3.859218 -5.399955,-7.302936 -8.520623,-10.588815 -2.253849,-2.330036 -4.494256,-4.688339 -6.96875,-6.788615 z" />
  </g>
  <metadata
     id="metadata7">
    <rdf:RDF>
      <cc:Work
         rdf:about="">
        <dc:title>VeriPB Logo</dc:title>
      </cc:Work>
    </rdf:RDF>
  </metadata>
</svg>
