<?xml version="1.0" encoding="UTF-8" standalone="no"?>
<!-- Created with Inkscape (http://www.inkscape.org/) -->

<svg
   width="221.95352mm"
   height="87.829369mm"
   viewBox="0 0 221.95352 87.829371"
   version="1.1"
   id="svg1"
   xmlns="http://www.w3.org/2000/svg"
   xmlns:svg="http://www.w3.org/2000/svg"
   xmlns:rdf="http://www.w3.org/1999/02/22-rdf-syntax-ns#"
   xmlns:cc="http://creativecommons.org/ns#"
   xmlns:dc="http://purl.org/dc/elements/1.1/">
  <title
     id="title7">VeriPB Logo</title>
  <defs
     id="defs1" />
  <g
     id="layer1"
     transform="translate(-15.786629,-27.562907)"
     style="display:inline">
    <g
       id="g18"
       style="display:none;fill:#473472;fill-opacity:1;stroke:none"
       transform="translate(3.2127404,-2.1418269)">
      <path
         d="m 32.516314,113.22027 c -2.431361,-1.38739 -5.66324,-3.13996 -9.898602,-5.2222 -0.200308,-0.0984 0.145534,-0.36643 0.21597,-0.5501 0.118943,-0.31018 0.234812,-0.62163 0.35229,-0.93195 1.482421,-3.64983 3.270407,-7.223637 5.292785,-10.699958 C 27.809558,94.580417 27.131446,93.348121 26.440833,92.120487 24.438959,88.663624 22.416931,85.192343 19.94107,81.947754 L 3.6078043,76.243499 c 3.2445918,2.948818 5.3693998,6.61355 7.5328927,10.140555 2.941928,4.940822 5.558248,10.010588 8.044481,15.118316 1.027874,2.22976 2.129514,4.45536 2.849724,6.7717 1.318042,4.52162 -0.399896,1.75389 10.481412,4.9462 z"
         style="fill:#473472;fill-opacity:1;stroke:none;stroke-width:1.07712"
         id="path18" />
      <path
         d="m 133.73924,13.230513 c -4.52217,0.930904 -9.03165,1.909495 -13.45061,3.14359 -5.10261,1.520513 -8.67456,2.450325 -13.58769,4.494469 -10.793735,4.490808 -20.113464,11.018911 -28.694845,17.965496 -2.569446,2.255478 -5.209572,4.456865 -7.708272,6.766144 -5.346463,4.941152 -10.923944,10.658942 -15.787215,15.911641 -2.584498,2.791467 -5.154263,5.594441 -7.593395,8.474082 -4.322473,5.103104 -7.772588,9.914243 -11.699112,15.200621 -1.441285,2.075341 -2.941047,4.123579 -4.323985,6.225917 -1.029106,1.564469 -2.015061,3.152064 -2.950816,4.76056 -2.022378,3.476321 -3.810364,7.050127 -5.292785,10.699957 -0.117475,0.31032 -0.233339,0.62177 -0.35229,0.93195 -0.07045,0.18367 -0.416278,0.45165 -0.21597,0.5501 4.235362,2.08224 7.467241,3.83481 9.898602,5.2222 7.194481,4.10541 7.376644,5.01067 5.782926,1.78096 0.05603,-0.12828 0.0047,-0.42911 0.04136,-0.58043 0.08253,-0.34109 0.152599,-0.68445 0.228989,-1.02663 1.325804,-5.51333 3.701199,-10.85407 6.469129,-15.976615 1.172781,-2.170435 2.466568,-4.295127 3.699818,-6.442498 8.962509,-14.532386 20.41596,-27.937252 33.898019,-39.83882 2.560038,-2.259913 5.279852,-4.392358 7.919642,-6.588545 8.817355,-6.782939 18.48851,-12.896199 29.43082,-17.150513 5.78266,-2.248266 7.73801,-2.597047 13.69109,-4.172066 4.67731,-1.14734 9.47245,-1.845374 14.28309,-2.45856 z"
         style="fill:#473472;fill-opacity:1;stroke:none;stroke-width:1.07712"
         id="path17" />
    </g>
    <path
       style="fill:#473472;fill-opacity:1;stroke:none;stroke-width:0.264583"
       id="path21"
       d="m 15.786629,73.778385 c 0.136753,0.126646 0.269405,0.257868 0.410259,0.379936 0.496158,0.429985 1.328244,1.071505 1.773842,1.432518 1.514734,1.227198 2.473414,2.006992 3.950498,3.38151 0.756947,0.704387 1.479998,1.444344 2.219997,2.166514 2.56434,2.618142 4.991536,5.382914 7.051559,8.42005 1.020277,1.504217 1.197468,1.891776 2.058768,3.427103 0.884076,1.732647 1.545449,3.573949 1.932971,5.481021 0.203274,1.00036 0.216374,1.322604 0.324827,2.316523 0.110516,1.40217 0.142377,2.80907 0.12519,4.21504 0.01365,0.79747 0.03883,1.59428 0.03633,2.39214 -0.174869,4.81975 -1.634842,0.929 10.516359,6.11842 0.186306,0.0796 -0.04382,-0.4028 -0.06573,-0.6042 -0.222031,-2.50765 -0.236853,-5.03411 -0.02363,-7.54349 0.0737,-0.86739 0.188333,-1.73082 0.282498,-2.59623 1.114126,-7.593933 3.564191,-14.933736 6.653612,-21.941493 0.879983,-1.996072 1.861111,-3.946004 2.791666,-5.919007 4.184221,-8.278288 9.342191,-16.058512 15.816487,-22.73123 4.147442,-4.274552 5.156769,-4.797517 9.822402,-8.417657 1.704123,-1.052838 3.363325,-2.182117 5.112369,-3.158511 4.232741,-2.36291 8.7977,-4.225824 13.488597,-5.453808 2.83963,-0.74336 3.78077,-0.784955 6.57458,-1.150691 3.24811,-0.14641 1.6975,-0.151451 4.6518,-0.02382 0,0 -8.83013,-6.406116 -8.83013,-6.406116 v 0 c -2.76952,0.167504 -1.31949,0.02569 -4.346534,0.460183 -2.689596,0.602501 -3.416517,0.690306 -6.140238,1.644058 -6.374345,2.232073 -12.299945,5.563547 -17.747951,9.534103 -1.688743,1.345203 -3.45852,2.594534 -5.066229,4.035603 -1.626751,1.458137 -3.137193,3.04407 -4.620947,4.647488 -4.792679,5.1792 -9.036916,10.885667 -12.730004,16.895971 -1.188842,1.934779 -2.243095,3.949099 -3.364643,5.923648 -1.017468,1.938343 -2.067472,3.859948 -3.052402,5.815025 -2.959902,5.875388 -5.693503,11.939805 -7.583842,18.253972 -0.29967,1.000969 -0.536917,2.019573 -0.805373,3.02936 -0.174244,0.846196 -0.371798,1.687925 -0.52273,2.538592 -0.425471,2.398 -0.608131,4.82985 -0.779147,7.25571 -0.02167,0.17972 -0.220774,0.44691 -0.06502,0.53918 12.67637,7.50956 10.651916,9.45001 10.522077,4.59974 -0.0013,-0.81162 0.03438,-1.6245 -0.0086,-2.43503 -0.138308,-1.49036 -0.318415,-2.97661 -0.441941,-4.46837 -0.113012,-0.91698 -0.17625,-1.5563 -0.355399,-2.47193 -0.403567,-2.06265 -1.127414,-4.048666 -2.094336,-5.913262 -0.338458,-0.5828 -0.659527,-1.176054 -1.015373,-1.748406 -2.399387,-3.859218 -5.399955,-7.302936 -8.520623,-10.588815 -2.253849,-2.330036 -4.494256,-4.688339 -6.96875,-6.788615 z" />
    <circle
       id="path22"
       style="fill:#473472;stroke:#000000;stroke-width:0.264583"
       cx="171.78302"
       cy="75.04007"
       r="0.071322836" />
    <text
       xml:space="preserve"
       style="font-style:normal;font-variant:normal;font-weight:500;font-stretch:normal;font-size:51.6993px;font-family:'Helvetica Neue';-inkscape-font-specification:'Helvetica Neue, Medium';font-variant-ligatures:normal;font-variant-caps:normal;font-variant-numeric:normal;font-variant-east-asian:normal;writing-mode:lr-tb;direction:ltr;fill:#585858;fill-opacity:1;stroke-width:0.24801"
       x="61.070843"
       y="115"
       id="text1"><tspan
         id="tspan1"
         style="fill:#585858;fill-opacity:1;stroke-width:0.24801"
         x="61.070843"
         y="115">ERI </tspan></text>
    <text
       xml:space="preserve"
       style="font-style:normal;font-variant:normal;font-weight:bold;font-stretch:normal;font-size:69.1598px;font-family:'Helvetica Neue';-inkscape-font-specification:'Helvetica Neue, Bold';font-variant-ligatures:normal;font-variant-caps:normal;font-variant-numeric:normal;font-variant-east-asian:normal;writing-mode:lr-tb;direction:ltr;fill:#333333;fill-opacity:1;stroke-width:0.331769"
       x="145.481"
       y="115"
       id="text2"><tspan
         id="tspan2"
         style="font-style:normal;font-variant:normal;font-weight:bold;font-stretch:normal;font-size:69.1598px;font-family:'Helvetica Neue';-inkscape-font-specification:'Helvetica Neue, Bold';font-variant-ligatures:normal;font-variant-caps:normal;font-variant-numeric:normal;font-variant-east-asian:normal;fill:#333333;fill-opacity:1;stroke-width:0.331769"
         x="145.481"
         y="115">PB</tspan></text>
  </g>
  <metadata
     id="metadata7">
    <rdf:RDF>
      <cc:Work
         rdf:about="">
        <dc:title>VeriPB Logo</dc:title>
      </cc:Work>
    </rdf:RDF>
  </metadata>
</svg>
